<?xml version="1.0" standalone="no"?>
<!DOCTYPE svg PUBLIC "-//W3C//DTD SVG 20010904//EN"
 "http://www.w3.org/TR/2001/REC-SVG-20010904/DTD/svg10.dtd">
<svg version="1.0" xmlns="http://www.w3.org/2000/svg"
 width="1000.000000pt" height="1000.000000pt" viewBox="0 0 1000.000000 1000.000000"
 preserveAspectRatio="xMidYMid meet">
<metadata>
Created by potrace 1.11, written by Peter Selinger 2001-2013
</metadata>
<g transform="translate(0.000000,1000.000000) scale(0.100000,-0.100000)"
fill="#000000" stroke="none">
<path d="M4693 8978 c-24 -34 -81 -180 -75 -196 2 -6 0 -12 -5 -12 -6 0 -10
-6 -10 -12 0 -7 -8 -42 -18 -78 -17 -64 -20 -79 -30 -130 -3 -14 -7 -36 -10
-50 -3 -14 -7 -38 -10 -55 -3 -16 -8 -43 -11 -60 -10 -56 -17 -110 -18 -147 0
-21 -4 -38 -7 -38 -3 0 -7 -17 -8 -37 -3 -53 -9 -108 -11 -108 -1 0 -3 -20 -5
-45 -1 -25 -6 -76 -10 -115 -18 -191 -34 -497 -39 -782 -2 -105 -7 -196 -10
-201 -4 -6 -3 -13 2 -16 6 -4 8 -61 2 -61 -1 0 -3 -10 -4 -22 -2 -13 1 -23 6
-23 5 0 6 -4 3 -10 -10 -16 -12 -80 -3 -80 5 0 6 -5 2 -11 -9 -15 -11 -118 -1
-122 4 -1 3 -17 -2 -35 -5 -17 -7 -32 -3 -32 4 0 8 -82 8 -183 2 -162 12 -532
15 -532 0 0 2 -31 4 -70 3 -69 10 -176 21 -325 3 -41 7 -102 9 -135 2 -33 7
-77 9 -98 3 -20 7 -74 10 -120 3 -45 8 -99 11 -121 3 -21 8 -66 10 -100 3 -33
7 -86 9 -116 5 -52 7 -75 22 -210 4 -30 7 -70 7 -87 0 -18 5 -33 10 -33 5 0 4
-6 -2 -14 -7 -8 -8 -17 -3 -20 5 -3 8 -21 7 -41 -1 -19 1 -35 4 -35 3 0 7 -19
7 -43 2 -45 12 -162 20 -212 2 -16 7 -55 10 -85 3 -30 7 -68 9 -85 2 -16 6
-64 10 -105 3 -41 8 -86 11 -100 4 -27 15 -123 19 -180 2 -19 4 -35 5 -35 1 0
4 -16 6 -35 6 -70 14 -147 24 -220 5 -41 12 -100 15 -130 9 -92 11 -105 19
-118 4 -7 2 -12 -4 -12 -6 0 -8 -5 -4 -12 7 -11 9 -23 18 -114 3 -28 8 -67 11
-85 9 -68 16 -125 20 -164 1 -22 5 -58 8 -80 6 -40 17 -128 23 -175 1 -14 6
-47 9 -75 3 -27 8 -68 10 -90 2 -22 6 -53 9 -70 6 -39 19 -142 23 -180 1 -16
5 -51 8 -77 l5 -47 -42 3 c-24 2 -54 7 -68 10 -14 3 -45 8 -70 11 -25 3 -58 9
-75 13 -16 5 -36 7 -42 5 -7 -3 -13 0 -13 7 0 6 -4 9 -9 5 -10 -6 -24 11 -28
35 -1 8 -6 23 -12 35 -8 17 -20 46 -26 65 -1 3 -7 18 -14 34 -6 16 -9 31 -6
34 3 3 -2 13 -11 23 -8 9 -16 26 -17 38 -1 11 -4 21 -7 21 -3 0 -12 21 -19 47
-8 25 -29 85 -48 132 -18 47 -34 88 -35 91 0 3 -4 16 -9 28 -5 13 -7 27 -4 32
3 5 1 10 -3 12 -5 1 -23 46 -41 98 -18 52 -35 102 -39 110 -3 8 -6 18 -7 23
-2 4 -4 9 -5 12 -1 3 -3 8 -5 13 -1 4 -4 14 -8 22 -10 25 -68 194 -72 210 -2
8 -8 27 -14 43 -6 15 -8 27 -5 27 4 0 0 7 -7 17 -8 9 -13 24 -11 35 2 10 -2
18 -8 18 -6 0 -9 4 -6 8 3 5 -1 20 -8 33 -7 14 -15 38 -19 54 -3 17 -11 44
-18 60 -7 17 -13 35 -14 40 -2 6 -13 44 -26 85 -12 41 -23 77 -24 80 -1 3 -4
12 -8 20 -12 30 -67 216 -73 248 -4 17 -10 32 -14 32 -3 0 -7 6 -7 13 -1 21
-13 65 -63 232 -19 66 -23 80 -34 130 -3 11 -14 50 -25 88 -11 37 -20 69 -21
72 0 3 -2 10 -4 17 -4 13 -30 117 -43 168 -3 14 -6 35 -6 48 -1 12 -4 22 -8
22 -4 0 -9 9 -12 20 -3 11 0 20 6 20 9 0 9 2 1 8 -6 4 -19 41 -28 82 -9 41
-19 86 -22 100 -21 91 -33 151 -37 185 -1 11 -5 25 -8 30 -3 6 -6 26 -8 45 -2
19 -7 40 -12 46 -5 6 -6 14 -3 17 4 3 3 14 -1 24 -4 10 -9 29 -11 43 -2 14 -6
45 -9 70 -4 25 -8 56 -9 70 -2 14 -6 34 -9 45 -3 11 -9 50 -11 86 -3 37 -8 82
-11 100 -9 65 -23 289 -30 499 -10 272 -10 362 -2 367 4 2 4 10 0 16 -8 13 -7
53 2 287 10 244 20 373 41 550 4 30 8 66 9 80 2 14 4 25 5 25 1 0 3 18 6 40 5
50 12 100 14 100 1 0 3 9 4 20 3 27 19 117 22 130 6 24 17 91 18 108 0 9 3 17
6 17 4 0 7 6 7 13 0 11 20 108 30 147 3 8 5 22 7 30 1 9 4 20 8 25 4 9 16 47
23 80 2 6 8 30 15 55 7 25 12 46 11 48 -1 1 6 16 14 32 9 17 13 30 11 30 -3 0
3 19 14 42 10 23 16 46 14 50 -3 4 -1 8 4 8 5 0 9 6 9 13 0 6 10 33 21 59 12
26 22 50 22 53 0 10 131 279 139 285 3 3 17 26 30 53 13 26 30 52 38 58 7 6
13 17 13 24 0 8 3 15 8 17 4 2 17 17 29 35 18 26 20 32 8 37 -8 3 -15 1 -15
-5 0 -5 -6 -9 -12 -8 -14 3 -113 -14 -120 -20 -2 -2 -14 -5 -28 -7 -98 -17
-472 -135 -495 -155 -5 -5 -15 -9 -22 -9 -17 0 -125 -51 -140 -66 -7 -7 -13
-17 -13 -22 0 -6 -3 -12 -8 -14 -9 -4 -82 -105 -82 -114 0 -3 -6 -12 -12 -19
-24 -26 -35 -41 -39 -50 -11 -28 -84 -151 -92 -156 -5 -3 -9 -10 -10 -15 -1
-17 -40 -99 -49 -105 -5 -3 -8 -10 -7 -15 1 -5 -11 -38 -28 -74 -38 -82 -47
-103 -45 -112 1 -5 -3 -8 -10 -8 -6 0 -9 -3 -5 -6 4 -5 -20 -82 -50 -154 -3
-8 -8 -23 -9 -33 -2 -9 -13 -42 -23 -72 -11 -30 -18 -55 -15 -55 2 0 -1 -12
-7 -27 -11 -28 -19 -62 -22 -95 -1 -10 -5 -18 -10 -18 -4 0 -6 -4 -3 -8 3 -5
-1 -33 -9 -62 -8 -29 -13 -56 -13 -59 1 -3 -3 -31 -10 -61 -6 -30 -14 -77 -18
-105 -3 -27 -8 -61 -10 -75 -3 -14 -6 -56 -9 -95 -2 -38 -5 -70 -5 -70 -5 0
-9 -49 -11 -107 -1 -40 -6 -65 -11 -62 -6 4 -5 -3 1 -15 9 -15 9 -27 1 -41 -6
-11 -7 -20 -2 -20 4 0 8 -9 8 -20 0 -11 -3 -20 -6 -20 -7 0 -4 -76 4 -89 4 -5
2 -12 -3 -16 -6 -3 -8 -11 -6 -18 3 -11 18 -318 17 -379 0 -16 5 -28 10 -28 7
0 6 -5 -1 -13 -6 -8 -9 -16 -6 -18 4 -5 15 -98 18 -166 1 -24 4 -43 7 -43 3 0
6 -12 6 -27 2 -36 12 -121 18 -152 3 -14 8 -47 12 -75 9 -71 12 -91 14 -91 1
0 3 -9 5 -20 8 -52 17 -101 20 -115 3 -8 7 -32 11 -54 3 -21 8 -48 11 -60 3
-11 6 -30 7 -41 2 -11 6 -31 10 -43 5 -13 10 -34 12 -45 2 -12 6 -33 8 -47 5
-25 42 -179 51 -212 3 -10 7 -26 9 -36 2 -9 9 -37 16 -62 7 -25 12 -46 11 -47
0 -2 6 -21 14 -43 8 -22 12 -40 8 -40 -3 0 1 -7 8 -17 8 -9 12 -17 10 -17 -2
-1 3 -21 10 -46 7 -25 14 -51 16 -57 7 -28 10 -39 16 -53 31 -80 66 -194 62
-200 -3 -5 2 -13 11 -18 9 -5 15 -12 15 -15 -1 -4 -1 -8 0 -9 0 -2 2 -10 4
-18 7 -31 40 -115 48 -121 4 -3 7 -10 6 -15 -1 -5 5 -25 13 -44 14 -32 23 -57
30 -78 1 -4 17 -37 35 -75 18 -37 33 -71 33 -75 1 -15 58 -121 63 -116 3 3 5
-1 4 -8 -1 -30 4 -49 11 -44 5 3 14 -12 21 -32 8 -20 19 -44 27 -52 7 -8 13
-19 14 -25 2 -11 36 -77 57 -110 7 -11 15 -27 19 -35 4 -8 14 -23 21 -32 8 -9
13 -21 10 -26 -3 -4 3 -15 14 -22 10 -8 19 -18 19 -23 0 -16 133 -237 143
-237 6 0 8 -3 4 -6 -5 -6 13 -43 53 -109 35 -58 234 -401 254 -437 11 -21 24
-38 28 -38 5 0 7 -4 3 -9 -3 -5 1 -16 9 -23 7 -8 21 -30 31 -48 10 -19 23 -38
29 -42 6 -4 7 -8 3 -8 -5 0 1 -13 12 -29 12 -16 21 -32 21 -36 0 -3 7 -13 15
-22 8 -8 13 -19 10 -24 -4 -5 -1 -9 4 -9 6 0 11 -7 11 -16 0 -8 5 -12 10 -9 6
4 10 3 9 -2 -3 -19 1 -46 7 -40 4 3 17 -15 31 -41 14 -26 32 -60 40 -75 8 -16
21 -31 29 -34 8 -3 14 -8 14 -12 0 -4 34 -43 75 -86 41 -44 75 -85 75 -92 0
-18 0 -18 37 -123 19 -52 35 -99 36 -104 1 -5 26 -68 55 -140 30 -72 54 -137
54 -143 1 -7 5 -13 10 -13 4 0 8 -4 8 -10 0 -15 73 -164 85 -172 5 -4 7 -8 2
-8 -4 0 1 -8 10 -18 10 -10 23 -17 30 -14 7 2 28 -2 48 -8 37 -12 59 -17 135
-26 25 -2 57 -9 71 -13 15 -5 33 -5 44 1 13 8 16 7 11 -1 -10 -15 17 -14 33 2
11 10 12 9 7 -1 -6 -10 7 -12 58 -11 37 1 69 6 72 11 3 4 11 5 17 1 15 -9 47
-12 47 -3 0 5 36 9 123 14 15 0 27 4 27 7 0 7 47 18 90 22 31 3 63 41 76 92 1
6 21 64 44 130 44 128 49 142 50 150 1 3 7 20 16 40 8 19 14 38 14 42 1 15 24
88 31 98 4 6 10 27 14 48 4 20 11 37 17 37 5 0 6 5 3 10 -3 6 -3 16 2 23 4 6
8 17 9 23 1 6 5 21 9 33 7 22 -7 24 -45 8 -8 -4 -25 -8 -37 -10 -12 -2 -25 -6
-29 -9 -3 -4 -12 -4 -20 -1 -8 3 -14 0 -14 -6 0 -6 -4 -11 -10 -11 -18 0 -10
21 41 108 52 87 59 99 118 204 18 32 37 61 42 64 5 3 7 10 4 15 -4 5 -2 9 3 9
6 0 15 14 21 30 5 17 15 30 22 30 7 0 9 3 6 7 -4 3 -3 11 2 17 5 6 18 27 29
47 41 74 47 84 59 99 6 8 13 22 15 30 2 8 11 23 21 34 9 11 17 26 17 33 0 7 5
13 11 13 5 0 8 4 4 9 -3 5 -1 12 4 15 5 4 26 37 47 74 20 37 44 75 52 85 8 9
11 17 7 17 -5 0 1 10 13 22 11 13 20 25 20 28 -2 8 63 120 73 126 5 3 9 12 9
20 0 15 37 73 55 86 7 5 7 8 0 8 -7 0 -7 3 0 8 10 7 19 21 68 112 17 30 38 66
49 79 10 13 18 28 18 32 0 5 16 33 35 64 20 30 32 55 28 55 -4 0 0 5 10 11 9
5 17 19 17 30 0 11 7 22 15 25 8 4 13 10 10 14 -3 4 2 13 10 20 8 7 15 18 15
25 0 7 7 18 15 25 9 7 14 15 11 17 -2 3 11 31 30 64 28 51 114 222 119 239 2
6 31 71 60 135 12 28 34 79 48 115 14 36 31 79 38 95 7 17 13 35 15 40 1 6 8
24 15 40 7 17 13 33 14 38 2 4 4 9 5 12 1 3 3 9 4 14 0 5 4 13 9 17 4 4 7 13
7 20 0 7 4 23 9 36 5 13 9 25 9 28 0 3 10 29 21 58 12 29 20 56 19 60 -1 4 6
24 15 46 9 21 14 42 11 47 -3 5 -1 9 4 9 5 0 9 6 10 13 1 13 9 49 13 57 1 3 3
10 4 15 6 33 19 72 28 83 5 6 7 12 4 12 -3 0 6 42 19 93 26 100 34 134 38 157
1 9 5 21 10 28 4 6 4 17 1 22 -3 6 -2 10 2 10 5 0 9 8 9 18 1 9 4 31 8 47 4
17 9 41 10 55 1 14 5 30 8 36 4 5 9 28 12 50 4 22 9 51 12 64 3 14 7 37 10 53
2 15 6 39 9 55 3 15 8 41 11 57 3 17 8 41 10 55 3 14 7 39 10 55 2 17 5 44 8
60 2 17 7 50 10 75 4 25 9 61 12 80 3 19 7 58 10 85 2 28 5 61 7 75 1 14 7 28
12 32 6 5 5 8 -3 8 -7 0 -10 5 -7 10 19 31 31 522 19 740 -3 52 -6 119 -7 147
-1 29 -5 53 -8 53 -3 0 -5 9 -4 21 1 20 -9 109 -21 179 -3 19 -7 46 -9 60 -2
14 -4 25 -5 25 -1 0 -3 14 -5 30 -2 17 -13 73 -25 125 -12 52 -23 106 -26 119
-3 13 -10 33 -15 43 -6 11 -8 22 -5 25 3 3 -1 17 -8 32 -7 14 -11 32 -9 39 3
6 -1 12 -8 12 -7 0 -10 3 -6 6 3 4 -7 42 -23 85 -16 44 -29 82 -29 84 -1 3 -8
21 -16 41 -8 20 -15 40 -15 43 0 4 -9 26 -20 49 -11 22 -20 46 -20 52 0 5 -5
10 -11 10 -5 0 -8 4 -4 9 3 5 1 12 -5 16 -6 4 -8 11 -5 16 4 5 1 9 -4 9 -6 0
-10 3 -9 8 2 7 -23 63 -32 72 -3 3 -21 37 -40 75 -19 39 -37 72 -40 75 -8 8
-28 42 -47 77 -13 25 -41 45 -132 92 -132 68 -321 153 -321 144 0 -3 -6 -1
-12 4 -11 8 -39 20 -143 59 -11 4 -26 8 -33 10 -8 1 -21 6 -30 10 -9 4 -19 8
-22 9 -3 1 -25 7 -50 15 -25 7 -65 19 -90 27 -63 21 -100 26 -100 14 0 -5 4
-11 8 -13 9 -4 70 -103 102 -168 13 -25 28 -48 34 -52 6 -4 8 -8 3 -8 -4 0 2
-19 14 -42 12 -24 21 -43 20 -43 -2 0 8 -22 22 -50 14 -27 31 -68 38 -90 8
-22 16 -42 19 -45 6 -5 91 -262 94 -283 1 -7 5 -18 9 -24 5 -7 6 -13 3 -13 -3
0 1 -18 9 -40 8 -22 12 -40 10 -40 -2 0 2 -18 10 -39 7 -22 16 -52 19 -68 2
-15 10 -53 17 -83 6 -30 13 -66 14 -80 2 -14 4 -25 5 -25 2 0 7 -23 15 -69 4
-21 9 -48 11 -60 9 -49 18 -113 17 -133 -1 -13 2 -23 6 -23 3 0 7 -17 8 -38 1
-44 11 -147 14 -147 0 0 3 -18 4 -40 2 -22 6 -65 9 -95 9 -103 19 -265 20
-332 1 -38 3 -68 6 -68 10 0 5 -55 -5 -62 -7 -5 -7 -10 0 -15 12 -9 13 -432 2
-450 -5 -8 -3 -13 3 -13 6 0 8 -4 5 -10 -3 -5 -8 -61 -9 -124 -2 -63 -7 -119
-10 -125 -4 -5 -2 -12 4 -16 6 -4 7 -12 3 -18 -4 -7 -8 -28 -9 -47 -4 -108
-16 -236 -24 -244 -5 -5 -5 -18 0 -31 5 -13 7 -25 5 -26 -5 -6 -16 -78 -20
-129 -2 -25 -6 -56 -10 -70 -3 -14 -8 -41 -11 -60 -3 -19 -7 -42 -9 -50 -2 -8
-7 -35 -11 -60 -7 -49 -12 -75 -14 -75 -1 0 -3 -11 -5 -25 -4 -32 -9 -57 -30
-150 -10 -41 -18 -85 -20 -97 -2 -11 -6 -30 -10 -42 -3 -11 -9 -33 -12 -48 -7
-37 -11 -57 -13 -63 -1 -3 -2 -9 -1 -14 1 -4 -4 -14 -10 -22 -6 -8 -9 -14 -6
-14 3 0 -5 -39 -18 -87 -13 -49 -21 -91 -18 -95 2 -5 -1 -8 -8 -8 -7 0 -10 -3
-7 -6 4 -3 2 -20 -3 -37 -6 -18 -12 -39 -14 -47 -2 -8 -20 -73 -40 -145 -20
-71 -38 -137 -40 -145 -2 -8 -14 -46 -25 -85 -12 -38 -23 -77 -24 -85 -1 -9
-5 -20 -8 -25 -3 -6 -9 -26 -13 -45 -4 -19 -10 -39 -14 -45 -3 -5 -6 -12 -6
-15 0 -3 -11 -38 -23 -77 -12 -40 -22 -75 -22 -78 0 -3 -6 -21 -14 -40 -9 -20
-15 -37 -16 -40 -1 -6 -9 -31 -16 -52 -4 -10 -8 -25 -9 -33 -2 -8 -30 -96 -64
-195 -34 -99 -64 -187 -66 -195 -2 -8 -4 -16 -5 -17 -2 -2 -4 -7 -5 -13 -1 -5
-3 -11 -5 -12 -1 -2 -3 -10 -5 -18 -4 -17 -81 -237 -91 -260 -4 -8 -8 -22 -10
-30 -2 -8 -7 -23 -13 -35 -17 -36 -24 -60 -22 -72 1 -7 -3 -13 -8 -13 -6 0 -8
-6 -5 -14 3 -8 0 -17 -5 -21 -6 -3 -9 -11 -6 -16 4 -5 2 -9 -3 -9 -4 0 -15
-23 -22 -50 -7 -28 -17 -50 -21 -50 -3 0 -6 -8 -6 -17 0 -10 -8 -36 -17 -58
-10 -22 -19 -44 -21 -50 -1 -5 -7 -23 -14 -40 -6 -16 -23 -59 -36 -95 -13 -36
-30 -78 -36 -95 -7 -16 -13 -32 -13 -35 -1 -3 -7 -18 -13 -35 -25 -61 -36 -90
-38 -97 -2 -5 -4 -10 -5 -13 -1 -3 -3 -8 -4 -12 -7 -35 -25 -45 -89 -48 -37
-2 -71 -7 -76 -10 -5 -3 -12 -1 -16 5 -4 6 -12 7 -18 3 -30 -19 -126 -5 -112
17 2 4 7 36 11 71 3 35 7 76 9 90 1 15 6 32 10 39 6 9 4 11 -5 5 -9 -6 -11 -4
-5 6 5 7 10 27 11 44 1 16 3 30 4 30 1 0 3 14 5 30 16 168 18 178 30 187 6 5
5 8 -3 8 -7 0 -11 4 -7 9 5 9 11 50 19 136 2 22 7 69 12 105 4 36 8 73 8 83 0
9 3 17 6 17 3 0 6 19 7 43 2 48 11 162 13 162 1 0 3 14 5 30 2 17 6 50 9 75 8
55 19 177 20 208 1 12 3 22 6 22 3 0 5 17 5 38 -1 20 1 41 4 47 2 5 6 27 7 50
0 22 4 54 7 70 4 26 15 126 22 215 1 14 3 25 5 25 1 0 3 20 5 45 2 25 6 70 10
100 3 30 8 71 10 90 2 19 6 64 10 100 4 36 8 83 10 105 2 22 6 63 10 90 3 28
8 77 10 110 2 33 5 60 5 60 1 0 4 16 5 35 2 19 6 60 9 90 13 113 19 186 20
217 1 18 3 33 6 33 3 0 5 21 6 48 0 26 4 76 8 112 4 36 9 92 12 125 3 33 7 80
9 105 5 60 14 179 19 265 3 39 6 70 6 70 1 0 4 20 5 45 2 25 6 88 9 140 9 131
17 285 21 410 2 58 6 120 8 138 2 18 -1 32 -7 32 -7 0 -8 3 -1 8 11 8 13 32 3
48 -4 6 -4 14 0 18 9 10 11 136 11 626 -1 504 -3 640 -9 640 -4 0 -10 124 -14
297 0 35 -3 63 -6 63 -3 0 -6 19 -7 43 -1 57 -6 110 -11 121 -2 4 -5 38 -6 75
-2 37 -5 71 -7 77 -3 5 -5 20 -4 34 0 14 -4 28 -10 32 -6 5 -5 8 3 8 9 0 10 5
4 18 -9 16 -22 95 -25 155 -1 15 -5 27 -8 27 -3 0 -5 10 -4 23 1 12 0 26 -3
32 -4 5 -7 16 -8 25 -1 8 -5 31 -9 50 -4 19 -8 44 -9 55 -1 11 -4 25 -8 30 -3
6 -9 26 -14 45 -4 19 -8 37 -9 40 -1 3 -5 19 -9 35 -4 17 -10 37 -13 45 -4 8
-5 18 -5 23 1 4 -2 7 -8 7 -5 0 -7 7 -4 15 4 8 2 15 -3 15 -5 0 -10 6 -10 14
0 8 -5 28 -13 45 -12 31 -20 34 -82 35 -16 0 -28 2 -28 5 0 4 -13 6 -30 7 -19
1 -27 -3 -23 -10 5 -7 2 -7 -8 1 -21 17 -396 18 -417 1 -12 -10 -14 -10 -8 0
4 6 5 12 3 12 -3 0 -9 -6 -14 -12z"/>
<path d="M2060 7645 c-14 -25 -28 -45 -33 -45 -4 0 -6 -4 -3 -8 3 -5 -5 -24
-17 -43 -13 -19 -36 -61 -53 -94 -16 -33 -33 -63 -39 -67 -5 -4 -7 -8 -2 -8 4
0 -2 -17 -13 -37 -11 -21 -20 -43 -20 -50 0 -7 -4 -13 -8 -13 -5 0 -9 -6 -9
-12 -1 -7 -11 -40 -23 -73 -20 -55 -62 -190 -110 -355 -10 -35 -16 -68 -14
-72 3 -4 1 -8 -4 -8 -5 0 -17 -37 -26 -82 -10 -46 -19 -90 -20 -98 -2 -8 -7
-35 -11 -60 -4 -25 -9 -53 -11 -63 -26 -141 -26 -764 1 -806 1 -3 6 -28 9 -56
6 -50 13 -90 16 -90 1 0 3 -9 4 -20 2 -11 11 -51 20 -90 10 -38 20 -81 22 -94
3 -13 10 -34 16 -45 6 -12 10 -22 9 -24 -5 -5 11 -67 20 -77 4 -6 10 -22 12
-35 2 -14 8 -34 12 -45 4 -11 22 -58 40 -106 33 -87 54 -135 108 -249 16 -36
31 -71 33 -79 1 -8 7 -17 11 -20 5 -3 23 -33 40 -66 47 -92 96 -179 103 -185
4 -3 13 -16 20 -30 30 -58 254 -379 280 -400 3 -3 15 -17 26 -32 62 -80 154
-181 370 -404 45 -46 80 -84 78 -84 -1 0 25 -28 59 -63 34 -35 105 -110 157
-166 52 -56 111 -119 130 -140 19 -21 54 -58 78 -84 23 -26 44 -47 47 -47 6 0
-98 144 -107 148 -5 2 -8 10 -8 18 0 8 -4 14 -10 14 -5 0 -10 7 -10 15 0 8 -3
15 -7 15 -5 0 -24 24 -43 54 -19 30 -39 52 -44 49 -5 -3 -6 -1 -2 5 3 6 0 16
-7 24 -7 7 -33 42 -57 78 -24 36 -48 70 -52 75 -5 6 -31 42 -58 80 -27 39 -55
78 -62 88 -7 9 -35 49 -63 88 -27 39 -71 100 -97 135 -27 36 -48 67 -48 70 0
3 -18 32 -40 64 -22 32 -40 62 -40 65 0 4 -8 19 -19 33 -23 34 -165 312 -209
412 -19 41 -40 87 -48 101 -7 14 -11 29 -7 33 3 3 1 6 -5 6 -7 0 -11 3 -10 8
1 4 -4 20 -10 35 -52 124 -93 230 -96 248 -2 8 -9 28 -16 44 -7 17 -15 38 -16
47 -2 10 -5 23 -6 30 -2 7 -6 15 -9 18 -3 3 -13 30 -21 60 -9 30 -26 87 -38
125 -12 39 -23 81 -26 93 -3 13 -12 49 -20 80 -8 32 -17 68 -20 82 -2 14 -7
36 -11 50 -9 34 -10 41 -16 75 -8 43 -16 83 -27 140 -6 28 -12 68 -14 90 -3
22 -5 40 -6 40 -1 0 -3 11 -5 25 -3 30 -15 125 -20 160 -2 14 -5 47 -6 73 -1
26 -6 50 -11 53 -4 3 -4 14 2 24 6 10 6 21 2 24 -13 8 -5 671 8 671 1 0 3 11
4 25 2 30 17 127 23 155 2 11 6 36 8 55 3 19 7 44 10 56 2 12 7 39 10 60 4 21
9 48 12 59 7 22 11 37 17 75 5 31 8 43 36 150 12 47 23 90 24 95 2 6 6 23 11
38 12 44 1 40 -25 -8z"/>
<path d="M7898 7585 c6 -11 10 -23 11 -27 1 -5 1 -9 2 -10 0 -2 2 -12 4 -23 2
-11 9 -40 15 -65 18 -68 21 -83 26 -110 2 -14 13 -72 24 -130 25 -127 29 -154
35 -205 2 -22 4 -40 5 -40 5 0 20 -139 25 -235 6 -110 6 -367 -1 -450 -2 -36
-6 -90 -8 -120 -2 -30 -5 -55 -6 -55 -1 0 -3 -18 -4 -40 -5 -58 -17 -167 -22
-190 -7 -34 -16 -88 -19 -119 -2 -17 -4 -31 -5 -31 -2 0 -4 -9 -6 -20 -1 -11
-5 -31 -8 -45 -3 -13 -8 -42 -11 -63 -4 -22 -10 -49 -14 -61 -5 -11 -9 -24 -9
-29 -1 -6 -23 -114 -27 -127 -1 -3 -5 -18 -9 -35 -4 -16 -17 -60 -28 -97 -11
-37 -19 -69 -18 -70 0 -2 -8 -29 -19 -60 -11 -32 -17 -58 -13 -58 4 0 2 -4 -3
-8 -6 -4 -19 -34 -28 -67 -10 -33 -22 -69 -27 -80 -5 -11 -25 -65 -45 -120
-20 -55 -41 -106 -47 -112 -6 -7 -7 -13 -4 -13 4 0 1 -10 -6 -22 -7 -13 -13
-27 -14 -33 -1 -5 -18 -46 -38 -90 -21 -44 -54 -114 -73 -155 -19 -41 -40 -78
-46 -82 -7 -4 -8 -8 -4 -8 4 0 -8 -30 -29 -67 -90 -166 -108 -198 -116 -201
-4 -2 -8 -9 -8 -17 0 -7 -7 -18 -15 -25 -8 -7 -12 -16 -9 -21 3 -5 1 -9 -4 -9
-5 0 -15 -13 -22 -30 -7 -16 -17 -27 -22 -23 -6 3 -9 0 -6 -7 2 -7 -5 -23 -17
-36 -11 -12 -27 -35 -35 -51 -8 -15 -23 -37 -32 -47 -10 -10 -15 -23 -12 -28
3 -4 1 -8 -5 -8 -5 0 -19 -16 -31 -35 -12 -20 -27 -41 -33 -48 -22 -23 -77
-108 -77 -117 0 -6 -4 -10 -8 -10 -4 0 -16 -15 -27 -32 -20 -35 -30 -48 -56
-77 -8 -9 -13 -23 -11 -31 3 -7 0 -10 -6 -6 -6 3 -13 -3 -17 -14 -3 -11 -11
-20 -16 -20 -5 0 -9 -6 -9 -13 0 -7 -8 -22 -18 -33 -10 -10 -28 -36 -41 -56
-12 -21 -27 -38 -32 -38 -6 0 -8 -4 -5 -9 4 -5 3 -11 -1 -13 -5 -1 -21 -23
-38 -48 -16 -25 -38 -54 -47 -64 -10 -11 -18 -26 -18 -33 0 -7 -3 -13 -8 -13
-4 0 -18 -18 -32 -40 -14 -22 -28 -40 -32 -40 -5 0 -8 -5 -8 -10 0 -6 -11 -23
-25 -38 -14 -15 -25 -30 -25 -34 0 -4 -18 -31 -40 -60 -22 -29 -40 -57 -40
-62 0 -5 14 11 32 35 17 24 34 46 37 49 3 3 26 31 50 63 24 31 48 57 53 57 5
0 7 4 4 9 -4 5 -3 11 1 13 5 1 33 35 63 73 30 39 57 72 60 75 3 3 28 34 55 69
28 36 57 72 65 81 9 9 29 34 45 55 17 22 33 42 36 45 3 3 38 46 77 95 40 50
78 97 85 105 6 8 42 53 79 100 37 47 77 95 88 107 11 12 20 27 20 32 0 5 4 11
8 13 12 5 189 241 287 383 27 39 53 73 59 77 6 4 7 8 3 8 -5 0 5 18 22 39 17
21 31 43 31 48 0 4 10 20 23 33 12 14 23 32 25 40 2 8 9 18 15 22 7 4 8 8 2 8
-5 0 -2 5 8 11 9 5 17 17 17 24 0 8 5 15 11 15 5 0 7 5 4 10 -3 6 -1 10 4 10
6 0 11 5 11 11 0 6 8 23 19 37 25 36 101 176 159 292 26 52 51 98 55 101 5 3
8 8 7 10 -1 2 9 29 22 59 14 30 25 57 25 60 0 3 10 24 21 46 12 23 18 44 15
48 -4 3 -2 6 4 6 6 0 13 10 16 23 2 12 20 67 40 122 50 143 85 272 103 375 27
154 37 225 38 268 0 17 5 32 11 32 5 0 3 5 -5 10 -10 6 -11 10 -2 10 6 0 12 7
12 16 0 9 -5 12 -12 8 -10 -6 -10 -5 -1 7 16 20 17 282 0 273 -9 -5 -9 -3 1 7
6 7 12 17 12 22 0 4 -6 5 -12 1 -9 -5 -9 -2 1 9 9 11 10 17 2 17 -6 0 -11 5
-11 11 0 5 6 7 13 3 9 -6 9 -4 1 7 -6 8 -11 21 -12 29 0 8 -2 29 -5 45 -3 17
-8 55 -12 85 -4 30 -9 58 -11 61 -2 4 -7 24 -10 45 -8 48 -12 69 -14 69 -1 0
-3 11 -6 25 -2 14 -9 37 -15 51 -5 14 -11 35 -12 47 -1 12 -5 22 -9 22 -4 0
-8 9 -8 20 0 10 -4 29 -9 42 -6 13 -27 66 -47 118 -41 105 -130 281 -175 348
-16 24 -29 47 -29 51 0 4 -9 16 -20 26 -11 10 -18 20 -16 23 3 2 0 9 -5 16
-46 54 -59 68 -51 51z"/>
</g>
</svg>
